<mxfile host="Electron" modified="2025-05-03T20:44:02.409Z" agent="Mozilla/5.0 (Windows NT 10.0; Win64; x64) AppleWebKit/537.36 (KHTML, like Gecko) draw.io/24.6.4 Chrome/124.0.6367.207 Electron/30.0.6 Safari/537.36" etag="hFvsVbtecT6PSIZbjEZ4" version="24.6.4" type="device">
  <diagram name="Page-1" id="r8ONKWHkrtWNc4QlR6nH">
    <mxGraphModel dx="1558" dy="1491" grid="0" gridSize="10" guides="1" tooltips="1" connect="1" arrows="1" fold="1" page="0" pageScale="1" pageWidth="850" pageHeight="1100" math="0" shadow="0">
      <root>
        <mxCell id="0" />
        <mxCell id="1" parent="0" />
        <mxCell id="w5l_E4ofcmc2DZOHcwnd-117" value="Recursive Descent Parsing" style="rounded=1;whiteSpace=wrap;html=1;fillColor=none;fontFamily=Garamond;verticalAlign=top;fontSize=17;fontStyle=1" parent="1" vertex="1">
          <mxGeometry x="-8" y="221" width="1160" height="820" as="geometry" />
        </mxCell>
        <mxCell id="w5l_E4ofcmc2DZOHcwnd-115" value="SLR1 Parsing" style="rounded=1;whiteSpace=wrap;html=1;fillColor=none;fontFamily=Garamond;verticalAlign=top;fontSize=17;fontStyle=1" parent="1" vertex="1">
          <mxGeometry x="11" y="535.25" width="229" height="211.75" as="geometry" />
        </mxCell>
        <mxCell id="w5l_E4ofcmc2DZOHcwnd-114" value="LL1 Parsing" style="rounded=1;whiteSpace=wrap;html=1;fillColor=none;fontFamily=Garamond;verticalAlign=top;fontSize=17;fontStyle=1" parent="1" vertex="1">
          <mxGeometry x="896" y="798" width="237" height="162.5" as="geometry" />
        </mxCell>
        <mxCell id="w5l_E4ofcmc2DZOHcwnd-4" style="edgeStyle=none;curved=1;rounded=0;orthogonalLoop=1;jettySize=auto;html=1;fontSize=12;startSize=8;endSize=8;" parent="1" source="w5l_E4ofcmc2DZOHcwnd-1" target="w5l_E4ofcmc2DZOHcwnd-2" edge="1">
          <mxGeometry relative="1" as="geometry" />
        </mxCell>
        <mxCell id="w5l_E4ofcmc2DZOHcwnd-1" value="Start" style="rounded=0;whiteSpace=wrap;html=1;fontFamily=Garamond;fontSize=16;" parent="1" vertex="1">
          <mxGeometry x="365" y="260" width="93" height="39" as="geometry" />
        </mxCell>
        <mxCell id="w5l_E4ofcmc2DZOHcwnd-5" style="edgeStyle=none;curved=1;rounded=0;orthogonalLoop=1;jettySize=auto;html=1;fontSize=12;startSize=8;endSize=8;" parent="1" source="w5l_E4ofcmc2DZOHcwnd-2" target="w5l_E4ofcmc2DZOHcwnd-3" edge="1">
          <mxGeometry relative="1" as="geometry" />
        </mxCell>
        <mxCell id="w5l_E4ofcmc2DZOHcwnd-2" value="DeclList" style="rounded=0;whiteSpace=wrap;html=1;fontFamily=Garamond;fontSize=16;" parent="1" vertex="1">
          <mxGeometry x="365" y="323" width="93" height="39" as="geometry" />
        </mxCell>
        <mxCell id="w5l_E4ofcmc2DZOHcwnd-9" style="edgeStyle=none;curved=1;rounded=0;orthogonalLoop=1;jettySize=auto;html=1;fontSize=12;startSize=8;endSize=8;" parent="1" source="w5l_E4ofcmc2DZOHcwnd-3" target="w5l_E4ofcmc2DZOHcwnd-7" edge="1">
          <mxGeometry relative="1" as="geometry" />
        </mxCell>
        <mxCell id="w5l_E4ofcmc2DZOHcwnd-10" style="edgeStyle=none;curved=1;rounded=0;orthogonalLoop=1;jettySize=auto;html=1;fontSize=12;startSize=8;endSize=8;" parent="1" source="w5l_E4ofcmc2DZOHcwnd-3" target="w5l_E4ofcmc2DZOHcwnd-8" edge="1">
          <mxGeometry relative="1" as="geometry" />
        </mxCell>
        <mxCell id="w5l_E4ofcmc2DZOHcwnd-3" value="Decl" style="rounded=0;whiteSpace=wrap;html=1;fontFamily=Garamond;fontSize=16;" parent="1" vertex="1">
          <mxGeometry x="365" y="384" width="93" height="39" as="geometry" />
        </mxCell>
        <mxCell id="w5l_E4ofcmc2DZOHcwnd-6" style="edgeStyle=none;curved=1;rounded=0;orthogonalLoop=1;jettySize=auto;html=1;fontSize=12;startSize=8;endSize=8;" parent="1" source="w5l_E4ofcmc2DZOHcwnd-2" target="w5l_E4ofcmc2DZOHcwnd-2" edge="1">
          <mxGeometry relative="1" as="geometry" />
        </mxCell>
        <mxCell id="w5l_E4ofcmc2DZOHcwnd-13" style="edgeStyle=none;curved=1;rounded=0;orthogonalLoop=1;jettySize=auto;html=1;fontSize=12;startSize=8;endSize=8;" parent="1" source="w5l_E4ofcmc2DZOHcwnd-7" target="w5l_E4ofcmc2DZOHcwnd-11" edge="1">
          <mxGeometry relative="1" as="geometry" />
        </mxCell>
        <mxCell id="w5l_E4ofcmc2DZOHcwnd-14" style="edgeStyle=none;curved=1;rounded=0;orthogonalLoop=1;jettySize=auto;html=1;fontSize=12;startSize=8;endSize=8;" parent="1" source="w5l_E4ofcmc2DZOHcwnd-7" target="w5l_E4ofcmc2DZOHcwnd-12" edge="1">
          <mxGeometry relative="1" as="geometry" />
        </mxCell>
        <mxCell id="w5l_E4ofcmc2DZOHcwnd-17" style="edgeStyle=none;curved=1;rounded=0;orthogonalLoop=1;jettySize=auto;html=1;fontSize=12;startSize=8;endSize=8;" parent="1" source="w5l_E4ofcmc2DZOHcwnd-7" target="w5l_E4ofcmc2DZOHcwnd-16" edge="1">
          <mxGeometry relative="1" as="geometry" />
        </mxCell>
        <mxCell id="w5l_E4ofcmc2DZOHcwnd-7" value="FuncDef" style="rounded=0;whiteSpace=wrap;html=1;fontFamily=Garamond;fontSize=16;" parent="1" vertex="1">
          <mxGeometry x="304" y="445" width="93" height="39" as="geometry" />
        </mxCell>
        <mxCell id="w5l_E4ofcmc2DZOHcwnd-28" style="edgeStyle=none;curved=1;rounded=0;orthogonalLoop=1;jettySize=auto;html=1;fontSize=12;startSize=8;endSize=8;" parent="1" source="w5l_E4ofcmc2DZOHcwnd-8" target="w5l_E4ofcmc2DZOHcwnd-11" edge="1">
          <mxGeometry relative="1" as="geometry" />
        </mxCell>
        <mxCell id="w5l_E4ofcmc2DZOHcwnd-30" style="edgeStyle=none;curved=1;rounded=0;orthogonalLoop=1;jettySize=auto;html=1;fontSize=12;startSize=8;endSize=8;" parent="1" source="w5l_E4ofcmc2DZOHcwnd-8" target="w5l_E4ofcmc2DZOHcwnd-29" edge="1">
          <mxGeometry relative="1" as="geometry" />
        </mxCell>
        <mxCell id="w5l_E4ofcmc2DZOHcwnd-8" value="VarDecl" style="rounded=0;whiteSpace=wrap;html=1;fontFamily=Garamond;fontSize=16;" parent="1" vertex="1">
          <mxGeometry x="428" y="445" width="93" height="39" as="geometry" />
        </mxCell>
        <mxCell id="w5l_E4ofcmc2DZOHcwnd-11" value="Type" style="rounded=0;whiteSpace=wrap;html=1;fontFamily=Garamond;fontSize=16;" parent="1" vertex="1">
          <mxGeometry x="145" y="479" width="93" height="39" as="geometry" />
        </mxCell>
        <mxCell id="w5l_E4ofcmc2DZOHcwnd-19" style="edgeStyle=none;curved=1;rounded=0;orthogonalLoop=1;jettySize=auto;html=1;fontSize=12;startSize=8;endSize=8;" parent="1" source="w5l_E4ofcmc2DZOHcwnd-12" target="w5l_E4ofcmc2DZOHcwnd-18" edge="1">
          <mxGeometry relative="1" as="geometry" />
        </mxCell>
        <mxCell id="w5l_E4ofcmc2DZOHcwnd-12" value="ParamList" style="rounded=0;whiteSpace=wrap;html=1;fontFamily=Garamond;fontSize=16;" parent="1" vertex="1">
          <mxGeometry x="79" y="577.5" width="93" height="39" as="geometry" />
        </mxCell>
        <mxCell id="w5l_E4ofcmc2DZOHcwnd-40" style="edgeStyle=none;curved=1;rounded=0;orthogonalLoop=1;jettySize=auto;html=1;fontSize=12;startSize=8;endSize=8;" parent="1" source="z7LC40X9M9epFMVXc8ku-1" target="w5l_E4ofcmc2DZOHcwnd-39" edge="1">
          <mxGeometry relative="1" as="geometry" />
        </mxCell>
        <mxCell id="w5l_E4ofcmc2DZOHcwnd-16" value="BlockStmt" style="rounded=0;whiteSpace=wrap;html=1;fontFamily=Garamond;fontSize=16;" parent="1" vertex="1">
          <mxGeometry x="368" y="518" width="93" height="39" as="geometry" />
        </mxCell>
        <mxCell id="w5l_E4ofcmc2DZOHcwnd-25" style="edgeStyle=none;curved=1;rounded=0;orthogonalLoop=1;jettySize=auto;html=1;fontSize=12;startSize=8;endSize=8;" parent="1" source="w5l_E4ofcmc2DZOHcwnd-18" target="w5l_E4ofcmc2DZOHcwnd-24" edge="1">
          <mxGeometry relative="1" as="geometry" />
        </mxCell>
        <mxCell id="w5l_E4ofcmc2DZOHcwnd-27" style="edgeStyle=none;curved=1;rounded=0;orthogonalLoop=1;jettySize=auto;html=1;fontSize=12;startSize=8;endSize=8;" parent="1" source="w5l_E4ofcmc2DZOHcwnd-18" target="w5l_E4ofcmc2DZOHcwnd-21" edge="1">
          <mxGeometry relative="1" as="geometry" />
        </mxCell>
        <mxCell id="w5l_E4ofcmc2DZOHcwnd-18" value="Param" style="rounded=0;whiteSpace=wrap;html=1;fontFamily=Garamond;fontSize=16;" parent="1" vertex="1">
          <mxGeometry x="79" y="638.5" width="93" height="39" as="geometry" />
        </mxCell>
        <mxCell id="w5l_E4ofcmc2DZOHcwnd-20" style="edgeStyle=none;curved=1;rounded=0;orthogonalLoop=1;jettySize=auto;html=1;fontSize=12;startSize=8;endSize=8;" parent="1" source="w5l_E4ofcmc2DZOHcwnd-12" target="w5l_E4ofcmc2DZOHcwnd-12" edge="1">
          <mxGeometry relative="1" as="geometry" />
        </mxCell>
        <mxCell id="w5l_E4ofcmc2DZOHcwnd-21" value="ParamVar" style="rounded=0;whiteSpace=wrap;html=1;fontFamily=Garamond;fontSize=16;" parent="1" vertex="1">
          <mxGeometry x="132" y="696.5" width="93" height="39" as="geometry" />
        </mxCell>
        <mxCell id="w5l_E4ofcmc2DZOHcwnd-24" value="Type" style="rounded=0;whiteSpace=wrap;html=1;fontFamily=Garamond;fontSize=16;" parent="1" vertex="1">
          <mxGeometry x="26" y="696.5" width="93" height="39" as="geometry" />
        </mxCell>
        <mxCell id="w5l_E4ofcmc2DZOHcwnd-32" style="edgeStyle=none;curved=1;rounded=0;orthogonalLoop=1;jettySize=auto;html=1;fontSize=12;startSize=8;endSize=8;" parent="1" source="w5l_E4ofcmc2DZOHcwnd-29" target="w5l_E4ofcmc2DZOHcwnd-31" edge="1">
          <mxGeometry relative="1" as="geometry" />
        </mxCell>
        <mxCell id="w5l_E4ofcmc2DZOHcwnd-29" value="VarAssignableList" style="rounded=0;whiteSpace=wrap;html=1;fontFamily=Garamond;fontSize=16;" parent="1" vertex="1">
          <mxGeometry x="482" y="518" width="93" height="39" as="geometry" />
        </mxCell>
        <mxCell id="w5l_E4ofcmc2DZOHcwnd-31" value="VarAssignable" style="rounded=0;whiteSpace=wrap;html=1;fontFamily=Garamond;fontSize=16;" parent="1" vertex="1">
          <mxGeometry x="482" y="580" width="93" height="39" as="geometry" />
        </mxCell>
        <mxCell id="w5l_E4ofcmc2DZOHcwnd-33" style="edgeStyle=none;curved=1;rounded=0;orthogonalLoop=1;jettySize=auto;html=1;fontSize=12;startSize=8;endSize=8;" parent="1" source="w5l_E4ofcmc2DZOHcwnd-29" target="w5l_E4ofcmc2DZOHcwnd-29" edge="1">
          <mxGeometry relative="1" as="geometry" />
        </mxCell>
        <mxCell id="w5l_E4ofcmc2DZOHcwnd-50" style="edgeStyle=none;curved=1;rounded=0;orthogonalLoop=1;jettySize=auto;html=1;fontSize=12;startSize=8;endSize=8;" parent="1" source="w5l_E4ofcmc2DZOHcwnd-39" target="w5l_E4ofcmc2DZOHcwnd-43" edge="1">
          <mxGeometry relative="1" as="geometry" />
        </mxCell>
        <mxCell id="w5l_E4ofcmc2DZOHcwnd-51" style="edgeStyle=none;curved=1;rounded=0;orthogonalLoop=1;jettySize=auto;html=1;fontSize=12;startSize=8;endSize=8;" parent="1" source="w5l_E4ofcmc2DZOHcwnd-39" target="w5l_E4ofcmc2DZOHcwnd-44" edge="1">
          <mxGeometry relative="1" as="geometry" />
        </mxCell>
        <mxCell id="w5l_E4ofcmc2DZOHcwnd-52" style="edgeStyle=none;curved=1;rounded=0;orthogonalLoop=1;jettySize=auto;html=1;fontSize=12;startSize=8;endSize=8;" parent="1" source="w5l_E4ofcmc2DZOHcwnd-39" target="w5l_E4ofcmc2DZOHcwnd-45" edge="1">
          <mxGeometry relative="1" as="geometry" />
        </mxCell>
        <mxCell id="w5l_E4ofcmc2DZOHcwnd-54" style="edgeStyle=none;curved=1;rounded=0;orthogonalLoop=1;jettySize=auto;html=1;fontSize=12;startSize=8;endSize=8;" parent="1" source="w5l_E4ofcmc2DZOHcwnd-39" target="w5l_E4ofcmc2DZOHcwnd-47" edge="1">
          <mxGeometry relative="1" as="geometry" />
        </mxCell>
        <mxCell id="w5l_E4ofcmc2DZOHcwnd-39" value="Stmt" style="rounded=0;whiteSpace=wrap;html=1;fontFamily=Garamond;fontSize=16;" parent="1" vertex="1">
          <mxGeometry x="368" y="684" width="93" height="39" as="geometry" />
        </mxCell>
        <mxCell id="w5l_E4ofcmc2DZOHcwnd-64" style="edgeStyle=none;curved=1;rounded=0;orthogonalLoop=1;jettySize=auto;html=1;fontSize=12;startSize=8;endSize=8;" parent="1" source="w5l_E4ofcmc2DZOHcwnd-43" target="w5l_E4ofcmc2DZOHcwnd-16" edge="1">
          <mxGeometry relative="1" as="geometry" />
        </mxCell>
        <mxCell id="w5l_E4ofcmc2DZOHcwnd-65" style="edgeStyle=none;curved=1;rounded=0;orthogonalLoop=1;jettySize=auto;html=1;fontSize=12;startSize=8;endSize=8;" parent="1" source="w5l_E4ofcmc2DZOHcwnd-43" target="w5l_E4ofcmc2DZOHcwnd-48" edge="1">
          <mxGeometry relative="1" as="geometry" />
        </mxCell>
        <mxCell id="w5l_E4ofcmc2DZOHcwnd-43" value="IfStmt" style="rounded=0;whiteSpace=wrap;html=1;fontFamily=Garamond;fontSize=16;" parent="1" vertex="1">
          <mxGeometry x="142" y="775" width="93" height="39" as="geometry" />
        </mxCell>
        <mxCell id="w5l_E4ofcmc2DZOHcwnd-61" style="edgeStyle=none;curved=1;rounded=0;orthogonalLoop=1;jettySize=auto;html=1;fontSize=12;startSize=8;endSize=8;" parent="1" source="w5l_E4ofcmc2DZOHcwnd-44" target="w5l_E4ofcmc2DZOHcwnd-48" edge="1">
          <mxGeometry relative="1" as="geometry" />
        </mxCell>
        <mxCell id="w5l_E4ofcmc2DZOHcwnd-44" value="WhileStmt" style="rounded=0;whiteSpace=wrap;html=1;fontFamily=Garamond;fontSize=16;" parent="1" vertex="1">
          <mxGeometry x="249" y="775" width="93" height="39" as="geometry" />
        </mxCell>
        <mxCell id="w5l_E4ofcmc2DZOHcwnd-58" style="edgeStyle=none;curved=1;rounded=0;orthogonalLoop=1;jettySize=auto;html=1;fontSize=12;startSize=8;endSize=8;" parent="1" source="w5l_E4ofcmc2DZOHcwnd-45" target="w5l_E4ofcmc2DZOHcwnd-56" edge="1">
          <mxGeometry relative="1" as="geometry" />
        </mxCell>
        <mxCell id="w5l_E4ofcmc2DZOHcwnd-59" style="edgeStyle=none;curved=1;rounded=0;orthogonalLoop=1;jettySize=auto;html=1;fontSize=12;startSize=8;endSize=8;" parent="1" source="w5l_E4ofcmc2DZOHcwnd-45" target="w5l_E4ofcmc2DZOHcwnd-48" edge="1">
          <mxGeometry relative="1" as="geometry" />
        </mxCell>
        <mxCell id="w5l_E4ofcmc2DZOHcwnd-45" value="ForStmt" style="rounded=0;whiteSpace=wrap;html=1;fontFamily=Garamond;fontSize=16;" parent="1" vertex="1">
          <mxGeometry x="355" y="775" width="93" height="39" as="geometry" />
        </mxCell>
        <mxCell id="w5l_E4ofcmc2DZOHcwnd-55" style="edgeStyle=none;curved=1;rounded=0;orthogonalLoop=1;jettySize=auto;html=1;fontSize=12;startSize=8;endSize=8;" parent="1" source="w5l_E4ofcmc2DZOHcwnd-47" target="w5l_E4ofcmc2DZOHcwnd-48" edge="1">
          <mxGeometry relative="1" as="geometry" />
        </mxCell>
        <mxCell id="w5l_E4ofcmc2DZOHcwnd-47" value="ReturnStmt" style="rounded=0;whiteSpace=wrap;html=1;fontFamily=Garamond;fontSize=16;" parent="1" vertex="1">
          <mxGeometry x="460" y="775" width="93" height="39" as="geometry" />
        </mxCell>
        <mxCell id="w5l_E4ofcmc2DZOHcwnd-67" style="edgeStyle=none;curved=1;rounded=0;orthogonalLoop=1;jettySize=auto;html=1;fontSize=12;startSize=8;endSize=8;" parent="1" source="w5l_E4ofcmc2DZOHcwnd-48" target="w5l_E4ofcmc2DZOHcwnd-66" edge="1">
          <mxGeometry relative="1" as="geometry" />
        </mxCell>
        <mxCell id="w5l_E4ofcmc2DZOHcwnd-48" value="Expr" style="rounded=0;whiteSpace=wrap;html=1;fontFamily=Garamond;fontSize=16;" parent="1" vertex="1">
          <mxGeometry x="521" y="878" width="93" height="39" as="geometry" />
        </mxCell>
        <mxCell id="w5l_E4ofcmc2DZOHcwnd-60" style="edgeStyle=none;curved=1;rounded=0;orthogonalLoop=1;jettySize=auto;html=1;fontSize=12;startSize=8;endSize=8;" parent="1" source="w5l_E4ofcmc2DZOHcwnd-56" target="w5l_E4ofcmc2DZOHcwnd-29" edge="1">
          <mxGeometry relative="1" as="geometry" />
        </mxCell>
        <mxCell id="OZZTJIpCMqDyPiSvdLln-5" style="edgeStyle=none;curved=1;rounded=0;orthogonalLoop=1;jettySize=auto;html=1;fontSize=12;startSize=8;endSize=8;" parent="1" source="w5l_E4ofcmc2DZOHcwnd-56" target="OZZTJIpCMqDyPiSvdLln-4" edge="1">
          <mxGeometry relative="1" as="geometry" />
        </mxCell>
        <mxCell id="w5l_E4ofcmc2DZOHcwnd-56" value="ForVarDecl" style="rounded=0;whiteSpace=wrap;html=1;fontFamily=Garamond;fontSize=16;" parent="1" vertex="1">
          <mxGeometry x="355" y="878" width="93" height="39" as="geometry" />
        </mxCell>
        <mxCell id="w5l_E4ofcmc2DZOHcwnd-69" style="edgeStyle=none;curved=1;rounded=0;orthogonalLoop=1;jettySize=auto;html=1;fontSize=12;startSize=8;endSize=8;" parent="1" source="w5l_E4ofcmc2DZOHcwnd-66" target="w5l_E4ofcmc2DZOHcwnd-48" edge="1">
          <mxGeometry relative="1" as="geometry" />
        </mxCell>
        <mxCell id="w5l_E4ofcmc2DZOHcwnd-72" style="edgeStyle=none;curved=1;rounded=0;orthogonalLoop=1;jettySize=auto;html=1;fontSize=12;startSize=8;endSize=8;" parent="1" source="w5l_E4ofcmc2DZOHcwnd-66" target="w5l_E4ofcmc2DZOHcwnd-71" edge="1">
          <mxGeometry relative="1" as="geometry" />
        </mxCell>
        <mxCell id="OZZTJIpCMqDyPiSvdLln-3" style="edgeStyle=none;curved=1;rounded=0;orthogonalLoop=1;jettySize=auto;html=1;fontSize=12;startSize=8;endSize=8;" parent="1" source="w5l_E4ofcmc2DZOHcwnd-66" target="OZZTJIpCMqDyPiSvdLln-2" edge="1">
          <mxGeometry relative="1" as="geometry" />
        </mxCell>
        <mxCell id="w5l_E4ofcmc2DZOHcwnd-66" value="AssignExpr" style="rounded=0;whiteSpace=wrap;html=1;fontFamily=Garamond;fontSize=16;" parent="1" vertex="1">
          <mxGeometry x="665" y="406" width="93" height="39" as="geometry" />
        </mxCell>
        <mxCell id="w5l_E4ofcmc2DZOHcwnd-75" style="edgeStyle=none;curved=1;rounded=0;orthogonalLoop=1;jettySize=auto;html=1;fontSize=12;startSize=8;endSize=8;" parent="1" source="w5l_E4ofcmc2DZOHcwnd-71" target="w5l_E4ofcmc2DZOHcwnd-74" edge="1">
          <mxGeometry relative="1" as="geometry" />
        </mxCell>
        <mxCell id="w5l_E4ofcmc2DZOHcwnd-71" value="OrExpr" style="rounded=0;whiteSpace=wrap;html=1;fontFamily=Garamond;fontSize=16;" parent="1" vertex="1">
          <mxGeometry x="665" y="469" width="93" height="39" as="geometry" />
        </mxCell>
        <mxCell id="w5l_E4ofcmc2DZOHcwnd-73" style="edgeStyle=none;curved=1;rounded=0;orthogonalLoop=1;jettySize=auto;html=1;fontSize=12;startSize=8;endSize=8;" parent="1" source="w5l_E4ofcmc2DZOHcwnd-71" target="w5l_E4ofcmc2DZOHcwnd-71" edge="1">
          <mxGeometry relative="1" as="geometry" />
        </mxCell>
        <mxCell id="w5l_E4ofcmc2DZOHcwnd-79" style="edgeStyle=none;curved=1;rounded=0;orthogonalLoop=1;jettySize=auto;html=1;fontSize=12;startSize=8;endSize=8;" parent="1" source="w5l_E4ofcmc2DZOHcwnd-74" target="w5l_E4ofcmc2DZOHcwnd-77" edge="1">
          <mxGeometry relative="1" as="geometry" />
        </mxCell>
        <mxCell id="w5l_E4ofcmc2DZOHcwnd-74" value="AndExpr" style="rounded=0;whiteSpace=wrap;html=1;fontFamily=Garamond;fontSize=16;" parent="1" vertex="1">
          <mxGeometry x="665" y="530" width="93" height="39" as="geometry" />
        </mxCell>
        <mxCell id="w5l_E4ofcmc2DZOHcwnd-76" style="edgeStyle=none;curved=1;rounded=0;orthogonalLoop=1;jettySize=auto;html=1;fontSize=12;startSize=8;endSize=8;" parent="1" source="w5l_E4ofcmc2DZOHcwnd-74" target="w5l_E4ofcmc2DZOHcwnd-74" edge="1">
          <mxGeometry relative="1" as="geometry" />
        </mxCell>
        <mxCell id="w5l_E4ofcmc2DZOHcwnd-82" style="edgeStyle=none;curved=1;rounded=0;orthogonalLoop=1;jettySize=auto;html=1;fontSize=12;startSize=8;endSize=8;" parent="1" source="w5l_E4ofcmc2DZOHcwnd-77" target="w5l_E4ofcmc2DZOHcwnd-80" edge="1">
          <mxGeometry relative="1" as="geometry" />
        </mxCell>
        <mxCell id="z7LC40X9M9epFMVXc8ku-12" style="edgeStyle=none;curved=1;rounded=0;orthogonalLoop=1;jettySize=auto;html=1;fontSize=12;startSize=8;endSize=8;" edge="1" parent="1" source="w5l_E4ofcmc2DZOHcwnd-77" target="z7LC40X9M9epFMVXc8ku-11">
          <mxGeometry relative="1" as="geometry" />
        </mxCell>
        <mxCell id="w5l_E4ofcmc2DZOHcwnd-77" value="EqualityExpr" style="rounded=0;whiteSpace=wrap;html=1;fontFamily=Garamond;fontSize=16;" parent="1" vertex="1">
          <mxGeometry x="665" y="587" width="93" height="39" as="geometry" />
        </mxCell>
        <mxCell id="w5l_E4ofcmc2DZOHcwnd-78" style="edgeStyle=none;curved=1;rounded=0;orthogonalLoop=1;jettySize=auto;html=1;fontSize=12;startSize=8;endSize=8;" parent="1" source="w5l_E4ofcmc2DZOHcwnd-77" target="w5l_E4ofcmc2DZOHcwnd-77" edge="1">
          <mxGeometry relative="1" as="geometry" />
        </mxCell>
        <mxCell id="w5l_E4ofcmc2DZOHcwnd-84" style="edgeStyle=none;curved=1;rounded=0;orthogonalLoop=1;jettySize=auto;html=1;fontSize=12;startSize=8;endSize=8;" parent="1" source="w5l_E4ofcmc2DZOHcwnd-80" target="w5l_E4ofcmc2DZOHcwnd-83" edge="1">
          <mxGeometry relative="1" as="geometry" />
        </mxCell>
        <mxCell id="z7LC40X9M9epFMVXc8ku-13" style="edgeStyle=none;curved=1;rounded=0;orthogonalLoop=1;jettySize=auto;html=1;fontSize=12;startSize=8;endSize=8;" edge="1" parent="1" source="w5l_E4ofcmc2DZOHcwnd-80" target="z7LC40X9M9epFMVXc8ku-10">
          <mxGeometry relative="1" as="geometry" />
        </mxCell>
        <mxCell id="w5l_E4ofcmc2DZOHcwnd-80" value="RelationalExpr" style="rounded=0;whiteSpace=wrap;html=1;fontFamily=Garamond;fontSize=16;" parent="1" vertex="1">
          <mxGeometry x="665" y="645" width="93" height="39" as="geometry" />
        </mxCell>
        <mxCell id="w5l_E4ofcmc2DZOHcwnd-81" style="edgeStyle=none;curved=1;rounded=0;orthogonalLoop=1;jettySize=auto;html=1;fontSize=12;startSize=8;endSize=8;" parent="1" source="w5l_E4ofcmc2DZOHcwnd-80" target="w5l_E4ofcmc2DZOHcwnd-80" edge="1">
          <mxGeometry relative="1" as="geometry" />
        </mxCell>
        <mxCell id="w5l_E4ofcmc2DZOHcwnd-88" style="edgeStyle=none;curved=1;rounded=0;orthogonalLoop=1;jettySize=auto;html=1;fontSize=12;startSize=8;endSize=8;" parent="1" source="w5l_E4ofcmc2DZOHcwnd-83" target="w5l_E4ofcmc2DZOHcwnd-86" edge="1">
          <mxGeometry relative="1" as="geometry" />
        </mxCell>
        <mxCell id="z7LC40X9M9epFMVXc8ku-14" style="edgeStyle=none;curved=1;rounded=0;orthogonalLoop=1;jettySize=auto;html=1;fontSize=12;startSize=8;endSize=8;" edge="1" parent="1" source="w5l_E4ofcmc2DZOHcwnd-83" target="z7LC40X9M9epFMVXc8ku-9">
          <mxGeometry relative="1" as="geometry" />
        </mxCell>
        <mxCell id="w5l_E4ofcmc2DZOHcwnd-83" value="SumExpr" style="rounded=0;whiteSpace=wrap;html=1;fontFamily=Garamond;fontSize=16;" parent="1" vertex="1">
          <mxGeometry x="665" y="704" width="93" height="39" as="geometry" />
        </mxCell>
        <mxCell id="w5l_E4ofcmc2DZOHcwnd-85" style="edgeStyle=none;curved=1;rounded=0;orthogonalLoop=1;jettySize=auto;html=1;fontSize=12;startSize=8;endSize=8;" parent="1" source="w5l_E4ofcmc2DZOHcwnd-83" target="w5l_E4ofcmc2DZOHcwnd-83" edge="1">
          <mxGeometry relative="1" as="geometry" />
        </mxCell>
        <mxCell id="w5l_E4ofcmc2DZOHcwnd-91" style="edgeStyle=none;curved=1;rounded=0;orthogonalLoop=1;jettySize=auto;html=1;fontSize=12;startSize=8;endSize=8;" parent="1" source="w5l_E4ofcmc2DZOHcwnd-86" target="w5l_E4ofcmc2DZOHcwnd-89" edge="1">
          <mxGeometry relative="1" as="geometry" />
        </mxCell>
        <mxCell id="z7LC40X9M9epFMVXc8ku-15" style="edgeStyle=none;curved=1;rounded=0;orthogonalLoop=1;jettySize=auto;html=1;fontSize=12;startSize=8;endSize=8;" edge="1" parent="1" source="w5l_E4ofcmc2DZOHcwnd-86" target="z7LC40X9M9epFMVXc8ku-8">
          <mxGeometry relative="1" as="geometry" />
        </mxCell>
        <mxCell id="w5l_E4ofcmc2DZOHcwnd-86" value="MulExpr" style="rounded=0;whiteSpace=wrap;html=1;fontFamily=Garamond;fontSize=16;" parent="1" vertex="1">
          <mxGeometry x="665" y="762" width="93" height="39" as="geometry" />
        </mxCell>
        <mxCell id="w5l_E4ofcmc2DZOHcwnd-87" style="edgeStyle=none;curved=1;rounded=0;orthogonalLoop=1;jettySize=auto;html=1;fontSize=12;startSize=8;endSize=8;" parent="1" source="w5l_E4ofcmc2DZOHcwnd-86" target="w5l_E4ofcmc2DZOHcwnd-86" edge="1">
          <mxGeometry relative="1" as="geometry" />
        </mxCell>
        <mxCell id="w5l_E4ofcmc2DZOHcwnd-102" style="edgeStyle=none;curved=1;rounded=0;orthogonalLoop=1;jettySize=auto;html=1;fontSize=12;startSize=8;endSize=8;" parent="1" source="w5l_E4ofcmc2DZOHcwnd-89" target="w5l_E4ofcmc2DZOHcwnd-92" edge="1">
          <mxGeometry relative="1" as="geometry" />
        </mxCell>
        <mxCell id="z7LC40X9M9epFMVXc8ku-16" style="edgeStyle=none;curved=1;rounded=0;orthogonalLoop=1;jettySize=auto;html=1;fontSize=12;startSize=8;endSize=8;" edge="1" parent="1" source="w5l_E4ofcmc2DZOHcwnd-89" target="z7LC40X9M9epFMVXc8ku-7">
          <mxGeometry relative="1" as="geometry" />
        </mxCell>
        <mxCell id="w5l_E4ofcmc2DZOHcwnd-89" value="UnaryExpr" style="rounded=0;whiteSpace=wrap;html=1;fontFamily=Garamond;fontSize=16;" parent="1" vertex="1">
          <mxGeometry x="665" y="820" width="93" height="39" as="geometry" />
        </mxCell>
        <mxCell id="w5l_E4ofcmc2DZOHcwnd-90" style="edgeStyle=none;curved=1;rounded=0;orthogonalLoop=1;jettySize=auto;html=1;fontSize=12;startSize=8;endSize=8;" parent="1" source="w5l_E4ofcmc2DZOHcwnd-89" target="w5l_E4ofcmc2DZOHcwnd-89" edge="1">
          <mxGeometry relative="1" as="geometry" />
        </mxCell>
        <mxCell id="w5l_E4ofcmc2DZOHcwnd-100" style="edgeStyle=none;curved=1;rounded=0;orthogonalLoop=1;jettySize=auto;html=1;fontSize=12;startSize=8;endSize=8;" parent="1" source="w5l_E4ofcmc2DZOHcwnd-92" target="w5l_E4ofcmc2DZOHcwnd-99" edge="1">
          <mxGeometry relative="1" as="geometry" />
        </mxCell>
        <mxCell id="w5l_E4ofcmc2DZOHcwnd-105" style="edgeStyle=none;curved=1;rounded=0;orthogonalLoop=1;jettySize=auto;html=1;fontSize=12;startSize=8;endSize=8;" parent="1" source="w5l_E4ofcmc2DZOHcwnd-92" target="w5l_E4ofcmc2DZOHcwnd-104" edge="1">
          <mxGeometry relative="1" as="geometry" />
        </mxCell>
        <mxCell id="w5l_E4ofcmc2DZOHcwnd-92" value="FuncCall" style="rounded=0;whiteSpace=wrap;html=1;fontFamily=Garamond;fontSize=16;" parent="1" vertex="1">
          <mxGeometry x="665" y="878" width="93" height="39" as="geometry" />
        </mxCell>
        <mxCell id="w5l_E4ofcmc2DZOHcwnd-103" style="edgeStyle=none;curved=1;rounded=0;orthogonalLoop=1;jettySize=auto;html=1;fontSize=12;startSize=8;endSize=8;" parent="1" source="w5l_E4ofcmc2DZOHcwnd-99" target="w5l_E4ofcmc2DZOHcwnd-48" edge="1">
          <mxGeometry relative="1" as="geometry" />
        </mxCell>
        <mxCell id="w5l_E4ofcmc2DZOHcwnd-99" value="ArgList" style="rounded=0;whiteSpace=wrap;html=1;fontFamily=Garamond;fontSize=16;" parent="1" vertex="1">
          <mxGeometry x="665" y="936" width="93" height="39" as="geometry" />
        </mxCell>
        <mxCell id="w5l_E4ofcmc2DZOHcwnd-101" style="edgeStyle=none;curved=1;rounded=0;orthogonalLoop=1;jettySize=auto;html=1;fontSize=12;startSize=8;endSize=8;" parent="1" source="w5l_E4ofcmc2DZOHcwnd-99" target="w5l_E4ofcmc2DZOHcwnd-99" edge="1">
          <mxGeometry relative="1" as="geometry" />
        </mxCell>
        <mxCell id="w5l_E4ofcmc2DZOHcwnd-106" style="edgeStyle=none;curved=1;rounded=0;orthogonalLoop=1;jettySize=auto;html=1;fontSize=12;startSize=8;endSize=8;" parent="1" source="w5l_E4ofcmc2DZOHcwnd-104" target="w5l_E4ofcmc2DZOHcwnd-48" edge="1">
          <mxGeometry relative="1" as="geometry" />
        </mxCell>
        <mxCell id="w5l_E4ofcmc2DZOHcwnd-108" style="edgeStyle=none;curved=1;rounded=0;orthogonalLoop=1;jettySize=auto;html=1;fontSize=12;startSize=8;endSize=8;" parent="1" source="w5l_E4ofcmc2DZOHcwnd-104" target="z7LC40X9M9epFMVXc8ku-23" edge="1">
          <mxGeometry relative="1" as="geometry">
            <mxPoint x="907" y="930.0921052631577" as="targetPoint" />
          </mxGeometry>
        </mxCell>
        <mxCell id="w5l_E4ofcmc2DZOHcwnd-104" value="Factor" style="rounded=0;whiteSpace=wrap;html=1;fontFamily=Garamond;fontSize=16;" parent="1" vertex="1">
          <mxGeometry x="793" y="910" width="93" height="39" as="geometry" />
        </mxCell>
        <mxCell id="OZZTJIpCMqDyPiSvdLln-10" style="edgeStyle=none;curved=1;rounded=0;orthogonalLoop=1;jettySize=auto;html=1;fontSize=12;startSize=8;endSize=8;" parent="1" source="OZZTJIpCMqDyPiSvdLln-2" target="OZZTJIpCMqDyPiSvdLln-8" edge="1">
          <mxGeometry relative="1" as="geometry" />
        </mxCell>
        <mxCell id="OZZTJIpCMqDyPiSvdLln-2" value="Var" style="rounded=0;whiteSpace=wrap;html=1;fontFamily=Garamond;fontSize=16;" parent="1" vertex="1">
          <mxGeometry x="545" y="406" width="93" height="39" as="geometry" />
        </mxCell>
        <mxCell id="OZZTJIpCMqDyPiSvdLln-7" style="edgeStyle=none;curved=1;rounded=0;orthogonalLoop=1;jettySize=auto;html=1;fontSize=12;startSize=8;endSize=8;" parent="1" source="OZZTJIpCMqDyPiSvdLln-4" target="OZZTJIpCMqDyPiSvdLln-6" edge="1">
          <mxGeometry relative="1" as="geometry" />
        </mxCell>
        <mxCell id="OZZTJIpCMqDyPiSvdLln-4" value="VarAssignList" style="rounded=0;whiteSpace=wrap;html=1;fontFamily=Garamond;fontSize=16;" parent="1" vertex="1">
          <mxGeometry x="355" y="933" width="93" height="39" as="geometry" />
        </mxCell>
        <mxCell id="z7LC40X9M9epFMVXc8ku-5" style="edgeStyle=none;curved=1;rounded=0;orthogonalLoop=1;jettySize=auto;html=1;fontSize=12;startSize=8;endSize=8;" edge="1" parent="1" source="OZZTJIpCMqDyPiSvdLln-6" target="w5l_E4ofcmc2DZOHcwnd-48">
          <mxGeometry relative="1" as="geometry" />
        </mxCell>
        <mxCell id="z7LC40X9M9epFMVXc8ku-6" style="edgeStyle=none;curved=1;rounded=0;orthogonalLoop=1;jettySize=auto;html=1;fontSize=12;startSize=8;endSize=8;" edge="1" parent="1" source="OZZTJIpCMqDyPiSvdLln-6" target="OZZTJIpCMqDyPiSvdLln-2">
          <mxGeometry relative="1" as="geometry" />
        </mxCell>
        <mxCell id="OZZTJIpCMqDyPiSvdLln-6" value="VarAssign" style="rounded=0;whiteSpace=wrap;html=1;fontFamily=Garamond;fontSize=16;" parent="1" vertex="1">
          <mxGeometry x="521" y="933" width="93" height="39" as="geometry" />
        </mxCell>
        <mxCell id="OZZTJIpCMqDyPiSvdLln-9" style="edgeStyle=none;curved=1;rounded=0;orthogonalLoop=1;jettySize=auto;html=1;fontSize=12;startSize=8;endSize=8;" parent="1" source="OZZTJIpCMqDyPiSvdLln-8" target="OZZTJIpCMqDyPiSvdLln-2" edge="1">
          <mxGeometry relative="1" as="geometry" />
        </mxCell>
        <mxCell id="OZZTJIpCMqDyPiSvdLln-12" style="edgeStyle=none;curved=1;rounded=0;orthogonalLoop=1;jettySize=auto;html=1;fontSize=12;startSize=8;endSize=8;" parent="1" source="OZZTJIpCMqDyPiSvdLln-8" target="OZZTJIpCMqDyPiSvdLln-11" edge="1">
          <mxGeometry relative="1" as="geometry" />
        </mxCell>
        <mxCell id="OZZTJIpCMqDyPiSvdLln-8" value="VarConst" style="rounded=0;whiteSpace=wrap;html=1;fontFamily=Garamond;fontSize=16;" parent="1" vertex="1">
          <mxGeometry x="545" y="337" width="93" height="39" as="geometry" />
        </mxCell>
        <mxCell id="OZZTJIpCMqDyPiSvdLln-11" value="Const" style="rounded=0;whiteSpace=wrap;html=1;fontFamily=Garamond;fontSize=16;" parent="1" vertex="1">
          <mxGeometry x="665" y="337" width="93" height="39" as="geometry" />
        </mxCell>
        <mxCell id="w5l_E4ofcmc2DZOHcwnd-37" style="edgeStyle=none;curved=1;rounded=0;orthogonalLoop=1;jettySize=auto;html=1;fontSize=12;startSize=8;endSize=8;" parent="1" source="w5l_E4ofcmc2DZOHcwnd-31" target="w5l_E4ofcmc2DZOHcwnd-48" edge="1">
          <mxGeometry relative="1" as="geometry">
            <mxPoint x="556" y="671" as="targetPoint" />
          </mxGeometry>
        </mxCell>
        <mxCell id="w5l_E4ofcmc2DZOHcwnd-53" style="edgeStyle=none;curved=1;rounded=0;orthogonalLoop=1;jettySize=auto;html=1;fontSize=12;startSize=8;endSize=8;" parent="1" source="w5l_E4ofcmc2DZOHcwnd-39" target="w5l_E4ofcmc2DZOHcwnd-48" edge="1">
          <mxGeometry relative="1" as="geometry" />
        </mxCell>
        <mxCell id="z7LC40X9M9epFMVXc8ku-2" value="" style="edgeStyle=none;curved=1;rounded=0;orthogonalLoop=1;jettySize=auto;html=1;fontSize=12;startSize=8;endSize=8;" edge="1" parent="1" source="w5l_E4ofcmc2DZOHcwnd-16" target="z7LC40X9M9epFMVXc8ku-1">
          <mxGeometry relative="1" as="geometry">
            <mxPoint x="415" y="557" as="sourcePoint" />
            <mxPoint x="415" y="684" as="targetPoint" />
          </mxGeometry>
        </mxCell>
        <mxCell id="z7LC40X9M9epFMVXc8ku-1" value="StmtList" style="rounded=0;whiteSpace=wrap;html=1;fontFamily=Garamond;fontSize=16;" vertex="1" parent="1">
          <mxGeometry x="249" y="555" width="93" height="39" as="geometry" />
        </mxCell>
        <mxCell id="w5l_E4ofcmc2DZOHcwnd-42" style="edgeStyle=none;curved=1;rounded=0;orthogonalLoop=1;jettySize=auto;html=1;fontSize=12;startSize=8;endSize=8;" parent="1" source="w5l_E4ofcmc2DZOHcwnd-39" target="w5l_E4ofcmc2DZOHcwnd-8" edge="1">
          <mxGeometry relative="1" as="geometry" />
        </mxCell>
        <mxCell id="w5l_E4ofcmc2DZOHcwnd-62" style="edgeStyle=none;curved=1;rounded=0;orthogonalLoop=1;jettySize=auto;html=1;fontSize=12;startSize=8;endSize=8;" parent="1" source="w5l_E4ofcmc2DZOHcwnd-44" target="w5l_E4ofcmc2DZOHcwnd-16" edge="1">
          <mxGeometry relative="1" as="geometry" />
        </mxCell>
        <mxCell id="w5l_E4ofcmc2DZOHcwnd-63" style="edgeStyle=none;curved=1;rounded=0;orthogonalLoop=1;jettySize=auto;html=1;fontSize=12;startSize=8;endSize=8;" parent="1" source="w5l_E4ofcmc2DZOHcwnd-45" target="w5l_E4ofcmc2DZOHcwnd-16" edge="1">
          <mxGeometry relative="1" as="geometry" />
        </mxCell>
        <mxCell id="z7LC40X9M9epFMVXc8ku-3" style="edgeStyle=none;curved=1;rounded=0;orthogonalLoop=1;jettySize=auto;html=1;fontSize=12;startSize=8;endSize=8;" edge="1" parent="1" source="z7LC40X9M9epFMVXc8ku-1" target="z7LC40X9M9epFMVXc8ku-1">
          <mxGeometry relative="1" as="geometry" />
        </mxCell>
        <mxCell id="z7LC40X9M9epFMVXc8ku-4" style="edgeStyle=none;curved=1;rounded=0;orthogonalLoop=1;jettySize=auto;html=1;fontSize=12;startSize=8;endSize=8;" edge="1" parent="1" source="OZZTJIpCMqDyPiSvdLln-4" target="OZZTJIpCMqDyPiSvdLln-4">
          <mxGeometry relative="1" as="geometry" />
        </mxCell>
        <mxCell id="z7LC40X9M9epFMVXc8ku-7" value="UnaryOp" style="rounded=0;whiteSpace=wrap;html=1;fontFamily=Garamond;fontSize=16;" vertex="1" parent="1">
          <mxGeometry x="793" y="820" width="93" height="39" as="geometry" />
        </mxCell>
        <mxCell id="z7LC40X9M9epFMVXc8ku-8" value="MulOp" style="rounded=0;whiteSpace=wrap;html=1;fontFamily=Garamond;fontSize=16;" vertex="1" parent="1">
          <mxGeometry x="793" y="762" width="93" height="39" as="geometry" />
        </mxCell>
        <mxCell id="z7LC40X9M9epFMVXc8ku-9" value="SumOp" style="rounded=0;whiteSpace=wrap;html=1;fontFamily=Garamond;fontSize=16;" vertex="1" parent="1">
          <mxGeometry x="793" y="704" width="93" height="39" as="geometry" />
        </mxCell>
        <mxCell id="z7LC40X9M9epFMVXc8ku-10" value="RelationalOp" style="rounded=0;whiteSpace=wrap;html=1;fontFamily=Garamond;fontSize=16;" vertex="1" parent="1">
          <mxGeometry x="793" y="645" width="93" height="39" as="geometry" />
        </mxCell>
        <mxCell id="z7LC40X9M9epFMVXc8ku-11" value="EqualityOp" style="rounded=0;whiteSpace=wrap;html=1;fontFamily=Garamond;fontSize=16;" vertex="1" parent="1">
          <mxGeometry x="793" y="587" width="93" height="39" as="geometry" />
        </mxCell>
        <mxCell id="z7LC40X9M9epFMVXc8ku-19" style="edgeStyle=none;curved=1;rounded=0;orthogonalLoop=1;jettySize=auto;html=1;fontSize=12;startSize=8;endSize=8;" edge="1" parent="1" source="z7LC40X9M9epFMVXc8ku-20" target="z7LC40X9M9epFMVXc8ku-23">
          <mxGeometry relative="1" as="geometry" />
        </mxCell>
        <mxCell id="z7LC40X9M9epFMVXc8ku-20" value="Var" style="rounded=0;whiteSpace=wrap;html=1;fontFamily=Garamond;fontSize=16;" vertex="1" parent="1">
          <mxGeometry x="908" y="910" width="93" height="39" as="geometry" />
        </mxCell>
        <mxCell id="z7LC40X9M9epFMVXc8ku-21" style="edgeStyle=none;curved=1;rounded=0;orthogonalLoop=1;jettySize=auto;html=1;fontSize=12;startSize=8;endSize=8;" edge="1" parent="1" source="z7LC40X9M9epFMVXc8ku-23" target="z7LC40X9M9epFMVXc8ku-20">
          <mxGeometry relative="1" as="geometry" />
        </mxCell>
        <mxCell id="z7LC40X9M9epFMVXc8ku-22" style="edgeStyle=none;curved=1;rounded=0;orthogonalLoop=1;jettySize=auto;html=1;fontSize=12;startSize=8;endSize=8;" edge="1" parent="1" source="z7LC40X9M9epFMVXc8ku-23" target="z7LC40X9M9epFMVXc8ku-24">
          <mxGeometry relative="1" as="geometry" />
        </mxCell>
        <mxCell id="z7LC40X9M9epFMVXc8ku-23" value="VarConst" style="rounded=0;whiteSpace=wrap;html=1;fontFamily=Garamond;fontSize=16;" vertex="1" parent="1">
          <mxGeometry x="908" y="841" width="93" height="39" as="geometry" />
        </mxCell>
        <mxCell id="z7LC40X9M9epFMVXc8ku-24" value="Const" style="rounded=0;whiteSpace=wrap;html=1;fontFamily=Garamond;fontSize=16;" vertex="1" parent="1">
          <mxGeometry x="1028" y="841" width="93" height="39" as="geometry" />
        </mxCell>
      </root>
    </mxGraphModel>
  </diagram>
</mxfile>
